<?xml version="1.0" encoding="UTF-8" standalone="no"?>
<svg
   xmlns:dc="http://purl.org/dc/elements/1.1/"
   xmlns:cc="http://creativecommons.org/ns#"
   xmlns:rdf="http://www.w3.org/1999/02/22-rdf-syntax-ns#"
   xmlns:svg="http://www.w3.org/2000/svg"
   xmlns="http://www.w3.org/2000/svg"
   xmlns:sodipodi="http://sodipodi.sourceforge.net/DTD/sodipodi-0.dtd"
   xmlns:inkscape="http://www.inkscape.org/namespaces/inkscape"
   sodipodi:docname="teste.svg"
   inkscape:version="1.0 (4035a4fb49, 2020-05-01)"
   id="svg8"
   version="1.1"
   viewBox="0 0 132.29166 132.29167"
   height="500"
   width="500">
  <defs
     id="defs2" />
  <sodipodi:namedview
     units="px"
     inkscape:window-maximized="0"
     inkscape:window-y="0"
     inkscape:window-x="0"
     inkscape:window-height="1030"
     inkscape:window-width="1902"
     showgrid="false"
     inkscape:document-rotation="0"
     inkscape:current-layer="layer1"
     inkscape:document-units="mm"
     inkscape:cy="358.66848"
     inkscape:cx="185.56313"
     inkscape:zoom="0.7"
     inkscape:pageshadow="2"
     inkscape:pageopacity="0.0"
     borderopacity="1.0"
     bordercolor="#666666"
     pagecolor="#ffffff"
     id="base" />
  <metadata
     id="metadata5">
    <rdf:RDF>
      <cc:Work
         rdf:about="">
        <dc:format>image/svg+xml</dc:format>
        <dc:type
           rdf:resource="http://purl.org/dc/dcmitype/StillImage" />
        <dc:title></dc:title>
      </cc:Work>
    </rdf:RDF>
  </metadata>
  <g
     id="layer1"
     inkscape:groupmode="layer"
     inkscape:label="Layer 1">
    <path
       inkscape:export-ydpi="96"
       inkscape:export-xdpi="96"
       d="m 68.353246,18.148248 -0.0505,0.02528 c 0.01242,0.0039 0.02625,0.0088 0.03223,0.01396 0.0059,-0.01332 0.01241,-0.026 0.01827,-0.03937 z m -1.06176,0.966394 c -0.1194,0.05455 -0.238125,0.110207 -0.307167,0.140256 -0.05468,0.02387 -0.110216,0.04561 -0.1655,0.06723 -0.0085,-0.01474 -0.0213,-0.02806 -0.03223,-0.04207 -0.127784,0.114608 -0.25978,0.21604 -0.413757,0.220208 -0.08203,0.002 -0.19822,-0.06952 -0.194958,-0.151483 0.0025,-0.04496 0.02953,-0.08231 0.05475,-0.120648 l -2.314259,1.178163 c 0.0985,1.692071 0.08146,1.125139 0.04483,3.861312 -0.05976,4.472364 -0.188345,8.943352 -0.249659,13.415689 -0.08582,6.258985 -0.164195,16.740551 -0.214599,22.749869 -0.153015,18.575625 -0.662709,37.146311 -1.127662,55.716142 -0.112345,4.33247 -0.07429,2.35249 -0.126233,5.93853 l 4.175473,-2.13894 c -0.216722,-3.44411 -0.114016,-1.53862 -0.283312,-5.71973 -0.590541,-18.350096 -0.610484,-36.71632 -0.12344,-55.069544 0.354906,-10.42249 0.690398,-20.839576 1.493742,-31.239697 0.559823,-7.247451 0.362408,-3.830705 0.84576,-8.543122 -0.03436,0.08846 -0.06265,0.179267 -0.10659,0.255276 -0.01402,0.02438 -0.02534,0.07552 -0.05192,0.06723 -0.298211,-0.105561 -0.216702,-0.154499 -0.159892,-0.370288 0.0025,-0.0075 0.0025,-0.0088 0.0059,-0.01543 -0.0091,-0.0059 -0.02227,-0.0075 -0.02946,-0.01686 -0.01982,-0.02482 -0.01383,-0.05744 -0.0025,-0.09124 -0.02644,0.02979 -0.0514,0.06079 -0.07716,0.09124 -0.02091,0.01595 -0.06054,0.04587 -0.09116,0.07152 -0.09059,0.111213 -0.186254,0.244225 -0.391317,0.478271 -0.03629,0.02823 -0.07644,0.116125 -0.109405,0.0842 -0.05919,-0.0577 -0.08929,-0.108455 -0.106601,-0.157086 -0.057,0.05482 -0.112426,0.111841 -0.173922,0.161293 -0.04105,0.03307 -0.09238,0.09879 -0.138855,0.07441 -0.08126,-0.04401 -0.100995,-0.154351 -0.151476,-0.23144 0.06633,-0.09941 0.125236,-0.204832 0.199171,-0.298745 0.107689,-0.136981 0.212606,-0.253744 0.323989,-0.364679 z"
       style="fill:#000000;fill-opacity:1;fill-rule:nonzero;stroke:none;stroke-width:0.718118"
       id="path375" />
    <path
       inkscape:export-ydpi="96"
       inkscape:export-xdpi="96"
       d="m 23.979163,23.004087 c 0.490517,-0.0754 0.978992,-0.165293 1.47154,-0.226094 14.027181,-1.726418 28.313715,-1.834221 42.421777,-2.082354 11.69394,-0.154173 23.387935,-0.03017 35.08097,0.113741 0,0 2.60128,-1.849409 2.60128,-1.849409 v 0 c -11.799568,0.04729 -23.599169,0.07892 -35.3988,0.106956 -14.034295,0.07679 -28.087461,0.04991 -42.099618,0.940411 0,0 -4.077149,2.996924 -4.077149,2.996924 z"
       id="path389"
       style="fill:#000000;fill-opacity:1;fill-rule:nonzero;stroke:none;stroke-width:0.718118" />
    <path
       inkscape:export-ydpi="96"
       inkscape:export-xdpi="96"
       d="m 3.6873259,55.023778 c 0.8190438,-0.01641 1.8049879,-0.03165 2.5965001,-0.06812 3.5977008,-0.167468 1.2257378,-0.129745 5.41242,-0.282636 4.233548,-0.154699 6.751402,-0.160669 11.238676,-0.226358 17.547351,0.06701 35.093647,0.179133 52.641219,0.110217 10.778035,0.02174 21.552915,-0.238574 32.330739,-0.235595 3.77617,0.0075 7.55121,-0.08985 11.32558,-0.193241 1.2815,-0.05071 2.56381,-0.02715 3.84544,2.44e-4 0.89624,0.01634 1.79199,0.04908 2.68762,0.08469 0,0 4.11506,-2.783246 4.11506,-2.783246 v 0 c -0.89123,-0.02766 -1.78241,-0.05752 -2.67319,-0.09764 -1.29204,-0.05154 -2.58645,-0.108581 -3.8787,-0.02438 -3.92067,0.251338 -7.84424,0.47365 -11.77379,0.520381 -10.9808,0.251339 -21.962767,0.446187 -32.944413,0.65542 -6.471943,0.103181 -10.111529,0.179685 -16.685772,0.204093 -11.922577,0.04445 -23.844282,-0.174777 -35.763359,-0.439278 -3.987891,-0.08659 -6.853082,-0.184279 -10.700667,-0.161228 -3.98111,0.02438 -1.779737,0.07603 -5.178566,0.13464 -0.8913468,0.01634 -1.5551622,-0.0075 -2.4123057,-0.02875 0,0 -4.1824674,2.829512 -4.1824674,2.829512 z"
       id="path397"
       style="fill:#000000;fill-opacity:1;fill-rule:nonzero;stroke:none;stroke-width:0.718118" />
    <path
       inkscape:export-ydpi="96"
       inkscape:export-xdpi="96"
       id="path417"
       d="M 40.020096,36.931228 91.570972,36.674737"
       style="fill:none;stroke:#000000;stroke-width:0.718118px;stroke-linecap:butt;stroke-linejoin:miter;stroke-opacity:1" />
    <circle
       r="4.0712404"
       inkscape:export-ydpi="96"
       inkscape:export-xdpi="96"
       cy="36.706589"
       cx="39.667194"
       id="path423"
       style="fill:#280b0b;fill-rule:evenodd;stroke-width:0.58243" />
    <circle
       r="4.0712404"
       inkscape:export-ydpi="96"
       inkscape:export-xdpi="96"
       style="fill:#280b0b;fill-rule:evenodd;stroke-width:0.58243"
       id="path423-6"
       cx="92.853348"
       cy="36.738853" />
    <circle
       r="3.1094701"
       inkscape:export-ydpi="96"
       inkscape:export-xdpi="96"
       style="fill:#ffffff;fill-rule:evenodd;stroke-width:0.444837"
       id="path423-5"
       cx="39.597557"
       cy="36.693428" />
    <circle
       r="3.1094701"
       inkscape:export-ydpi="96"
       inkscape:export-xdpi="96"
       cy="36.739433"
       cx="92.856552"
       id="path423-5-2"
       style="fill:#ffffff;fill-rule:evenodd;stroke-width:0.444837" />
  </g>
</svg>
